<?xml version="1.0" encoding="UTF-8"?>
<svg width="1200pt" height="1200pt" version="1.1" viewBox="0 0 1200 1200" xmlns="http://www.w3.org/2000/svg">
 <path d="m351.14 267.49c-3.9297 0.058594-7.6836 1.6445-10.465 4.4258l-68.758 68.758c-2.8359 2.8359-4.4258 6.6797-4.4258 10.688s1.5898 7.8516 4.4258 10.688l238 237.91-238 238c-2.832 2.8359-4.4258 6.6797-4.4258 10.688 0 4.0078 1.5938 7.8516 4.4258 10.684l68.758 68.758c2.832 2.8359 6.6797 4.4258 10.688 4.4258s7.8516-1.5898 10.688-4.4258l237.91-238 238 238c2.832 2.832 6.6758 4.4258 10.684 4.4258 4.0117 0 7.8555-1.5938 10.688-4.4258l68.758-68.758c2.832-2.832 4.4258-6.6758 4.4258-10.684 0-4.0078-1.5938-7.8516-4.4258-10.688l-238-238 238-237.91c2.8359-2.8359 4.4258-6.6797 4.4258-10.688s-1.5898-7.8516-4.4258-10.688l-68.758-68.758c-2.832-2.832-6.6758-4.4258-10.688-4.4258-4.0078 0-7.8516 1.5938-10.684 4.4258l-238 238-237.91-238c-2.8906-2.8867-6.8242-4.4844-10.91-4.4258z" fill="#fff" fill-rule="evenodd"/>
</svg>
