<?xml version="1.0" encoding="UTF-8"?>
<svg width="1200pt" height="1200pt" version="1.1" viewBox="0 0 1200 1200" xmlns="http://www.w3.org/2000/svg">
 <g fill="#ebff00">
  <path d="m678.32 1081.1c34.453-2.293 61.801-30.973 61.801-66v-114.53c0-50.172 21.469-98.867 58.906-133.6 66.012-61.246 99.254-148.03 91.176-238.13-12.48-139.34-127.25-251.7-266.98-261.35-13.754-0.94922-27.145-0.94922-40.906 0-139.71 9.6484-254.5 122-266.98 261.35-8.0625 90.098 25.164 176.9 91.176 238.13 37.43 34.727 58.895 83.41 58.895 133.6v114.53c0 35.016 27.348 63.707 61.801 66 8.8711 30.156 38.727 58.934 75.555 58.934 36.828 0 66.695-28.777 75.551-58.934zm-176.89-108.27h202.69v18.254l-202.69-0.003906zm-70.43-232.24c-57.781-53.605-86.867-129.61-79.801-208.52 10.922-121.91 111.34-220.21 233.59-228.65 12.086-0.82812 23.879-0.82812 35.953 0 122.26 8.4375 222.67 106.74 233.59 228.65 7.0664 78.91-22.008 154.92-79.789 208.52-40.273 37.355-65.09 88.309-69.66 141.98h-46.57l-0.003907-229.75h23.641c32.879 0 59.629-26.746 59.629-59.629 0-32.879-26.746-59.641-59.629-59.641-32.879 0-59.641 26.746-59.641 59.641v23.629h-39.07l-0.003906-23.629c0-32.879-26.746-59.641-59.629-59.641-32.879 0-59.641 26.746-59.641 59.641 0 32.891 26.746 59.629 59.641 59.629h23.629v229.75h-46.57c-4.582-53.668-29.398-104.63-69.672-141.99zm116.23-123.77h-23.629c-13.031 0-23.641-10.598-23.641-23.629s10.609-23.641 23.641-23.641 23.629 10.609 23.629 23.641zm36 36h39.07v229.75h-39.07zm75.074-36v-23.629c0-13.031 10.609-23.641 23.641-23.641s23.629 10.609 23.629 23.641-10.598 23.629-23.629 23.629zm45.816 301.75v18.254h-202.69v-18.254zm-200.2 108.5h197.69c-4.6562 10.715-15.312 18.254-27.719 18.254h-142.24c-12.422 0-23.074-7.5234-27.73-18.254zm98.844 76.957c-15.445 0-28.957-10.766-36.336-22.703h72.684c-7.3945 11.938-20.906 22.703-36.348 22.703z"/>
  <path d="m583.69 79.078v83.617c0 10.5 8.5938 19.078 19.078 19.078 10.5 0 19.078-8.5938 19.078-19.078l0.003906-83.617c0-10.5-8.5938-19.078-19.078-19.078-10.488 0-19.082 8.5938-19.082 19.078z"/>
  <path d="m895.48 156.91c-8.4961-6.168-20.484-4.2734-26.652 4.2227l-49.152 67.645c-6.168 8.4961-4.2734 20.484 4.2227 26.652 8.4961 6.168 20.484 4.2734 26.652-4.2227l49.152-67.645c6.1562-8.4961 4.2617-20.484-4.2227-26.652z"/>
  <path d="m1075.3 407.35c-3.2383-9.9844-14.062-15.492-24.047-12.254l-79.523 25.836c-9.9844 3.2383-15.492 14.062-12.254 24.047s14.062 15.492 24.047 12.254l79.523-25.836c9.9844-3.25 15.492-14.074 12.254-24.047z"/>
  <path d="m1049.5 727.91c9.9844 3.2383 20.797-2.2695 24.047-12.254 3.2383-9.9844-2.2695-20.797-12.254-24.047l-79.523-25.836c-9.9844-3.2383-20.797 2.2695-24.047 12.254-3.2383 9.9844 2.2695 20.797 12.254 24.047z"/>
  <path d="m864.32 959.87c6.168 8.4844 18.168 10.391 26.652 4.2227 8.4961-6.168 10.391-18.168 4.2227-26.652l-49.152-67.645c-6.168-8.4961-18.168-10.391-26.652-4.2227-8.4844 6.168-10.391 18.168-4.2227 26.652z"/>
  <path d="m304.52 960.83c8.4961 6.168 20.484 4.2734 26.652-4.2227l49.152-67.645c6.168-8.4961 4.2734-20.484-4.2227-26.652-8.4961-6.168-20.484-4.2734-26.652 4.2227l-49.152 67.645c-6.1562 8.4844-4.2617 20.473 4.2227 26.652z"/>
  <path d="m148.74 722.63 79.523-25.836c9.9844-3.2383 15.492-14.062 12.254-24.047s-14.062-15.492-24.047-12.254l-79.523 25.836c-9.9844 3.2383-15.492 14.062-12.254 24.047 3.2422 9.9844 14.066 15.504 24.047 12.254z"/>
  <path d="m138.66 426.11 79.523 25.836c9.9844 3.2383 20.797-2.2695 24.047-12.254 3.2383-9.9844-2.2695-20.797-12.254-24.047l-79.523-25.836c-9.9844-3.2383-20.797 2.2695-24.047 12.254-3.2383 9.9805 2.2695 20.805 12.254 24.047z"/>
  <path d="m353.94 247.95c6.168 8.4961 18.168 10.391 26.652 4.2227 8.4961-6.168 10.391-18.168 4.2227-26.652l-49.152-67.645c-6.168-8.4961-18.168-10.391-26.652-4.2227-8.4961 6.168-10.391 18.168-4.2227 26.652z"/>
 </g>
</svg>
