<?xml version="1.0" encoding="UTF-8"?>
<svg width="1200pt" height="1200pt" version="1.1" viewBox="0 0 1200 1200" xmlns="http://www.w3.org/2000/svg">
 <path d="m998.14 1078c-2.7656 6.9844-7.5625 12.98-13.773 17.207-6.2109 4.2266-13.551 6.4883-21.062 6.4922-17.852 0-30.352-11.426-37.5-34.273-13.949-162.64-221.48-422.66-400.8-410.25v158.93c-0.25391 9.8281-4.3125 19.172-11.324 26.062-7.0078 6.8906-16.422 10.789-26.254 10.875-9.8281 0.082031-19.309-3.6562-26.434-10.426l-340.16-340.12c-6.8945-7.1016-10.75-16.613-10.75-26.512 0-9.8984 3.8555-19.41 10.75-26.512l340.16-340.16c7.125-6.7695 16.598-10.508 26.422-10.426 9.8281 0.082031 19.238 3.9727 26.25 10.855 7.0117 6.8867 11.078 16.223 11.34 26.047v158.06c407.1 68.547 632.74 380.77 473.14 784.16z"/>
</svg>
